<?xml version="1.0" standalone="no"?>
<!DOCTYPE svg PUBLIC "-//W3C//DTD SVG 20010904//EN"
 "http://www.w3.org/TR/2001/REC-SVG-20010904/DTD/svg10.dtd">
<svg version="1.0" xmlns="http://www.w3.org/2000/svg"
 width="550.000000pt" height="550.000000pt" viewBox="0 0 550.000000 550.000000"
 preserveAspectRatio="xMidYMid meet">
<metadata>
Created by potrace 1.11, written by Peter Selinger 2001-2013
</metadata>
<g transform="translate(0.000000,550.000000) scale(0.100000,-0.100000)"
fill="#000000" stroke="none">
<path d="M3188 5155 c-2 -1 -34 -5 -72 -9 -180 -17 -412 -84 -581 -167 -123
-61 -143 -72 -230 -133 -64 -45 -80 -51 -190 -73 -219 -44 -360 -91 -564 -190
-329 -160 -636 -432 -848 -752 -70 -105 -174 -306 -215 -416 -98 -258 -141
-499 -142 -780 0 -182 12 -290 60 -524 17 -83 105 -317 164 -436 176 -356 429
-642 760 -860 128 -84 209 -126 405 -210 94 -41 351 -109 454 -121 31 -3 65
-9 76 -11 48 -12 425 -11 520 2 356 47 644 154 940 351 159 105 206 144 359
299 l109 110 416 -156 c229 -86 417 -155 419 -154 1 1 -137 142 -308 312
l-310 310 54 109 c87 176 141 324 179 499 38 167 48 256 52 435 3 172 -4 269
-36 455 -11 63 -57 244 -66 258 -3 5 10 20 28 35 67 53 197 188 241 252 73
104 132 233 154 335 3 17 8 75 10 130 4 137 -17 232 -80 352 -127 241 -400
421 -751 493 -33 7 -78 25 -100 40 -128 88 -344 170 -510 194 -23 4 -52 9 -65
12 -25 5 -327 14 -332 9z"/>
</g>
</svg>
